<?xml version="1.0" standalone="no"?>
<!DOCTYPE svg PUBLIC "-//W3C//DTD SVG 20010904//EN"
 "http://www.w3.org/TR/2001/REC-SVG-20010904/DTD/svg10.dtd">
<svg version="1.0" xmlns="http://www.w3.org/2000/svg"
 width="176.000000pt" height="176.000000pt" viewBox="0 0 176.000000 176.000000"
 preserveAspectRatio="xMidYMid meet">
<metadata>
Created by potrace 1.11, written by Peter Selinger 2001-2013
</metadata>
<g transform="translate(0.000000,176.000000) scale(0.100000,-0.100000)"
fill="#000000" stroke="none">
<path d="M743 1395 c-170 -46 -311 -179 -367 -347 -14 -42 -26 -81 -26 -87 0
-6 13 -11 29 -11 25 0 30 4 36 38 10 54 59 150 105 204 53 62 147 122 226 144
59 17 64 21 64 46 0 32 2 31 -67 13z"/>
<path d="M930 1382 c0 -27 3 -30 46 -36 63 -8 159 -57 222 -112 62 -54 127
-159 143 -231 11 -49 15 -53 41 -53 33 0 33 0 8 81 -22 73 -71 158 -120 213
-69 75 -196 144 -297 161 -42 7 -43 6 -43 -23z"/>
<path d="M604 1161 c-5 -3 -10 -25 -11 -48 -2 -34 2 -43 18 -48 25 -8 36 1 41
35 3 24 18 28 73 21 6 -1 10 -58 10 -148 0 -135 -2 -148 -18 -151 -12 -3 -17
-11 -15 -25 2 -17 10 -22 33 -23 60 -2 60 -2 61 -43 1 -52 31 -109 77 -145 35
-28 46 -31 107 -31 61 0 72 3 106 31 79 64 102 173 57 265 -35 70 -87 103
-162 103 -73 -1 -121 -28 -157 -90 -15 -25 -29 -43 -32 -40 -10 11 -7 280 4
291 6 6 29 10 50 10 35 -1 40 -4 44 -31 4 -21 11 -30 28 -32 20 -3 22 0 22 52
l0 55 -164 0 c-90 -1 -167 -4 -172 -8z m434 -271 c67 -41 91 -131 57 -214 -29
-69 -116 -96 -182 -56 -42 25 -64 70 -65 130 0 119 101 194 190 140z"/>
<path d="M350 806 c0 -38 37 -147 69 -201 77 -132 214 -231 359 -258 30 -6 32
-5 32 22 0 25 -5 30 -37 36 -158 29 -330 202 -358 360 -9 48 -21 65 -46 65
-13 0 -19 -7 -19 -24z"/>
<path d="M1354 800 c-13 -58 -37 -128 -59 -166 -67 -116 -194 -208 -315 -230
-44 -8 -50 -13 -50 -39 0 -29 3 -30 84 -9 180 46 326 190 380 373 24 81 22
101 -9 99 -19 -2 -27 -10 -31 -28z"/>
</g>
</svg>
